<svg id="Layer_1" data-name="Layer 1" xmlns="http://www.w3.org/2000/svg" viewBox="0 0 1815 448"><defs><style>.cls-1{fill:#93d500;}</style></defs><path d="M772,426.81V322.86H691v38.25h37.43v35.76a59,59,0,0,1-13.87,4,96.09,96.09,0,0,1-15.8,1.25,67.5,67.5,0,0,1-25.64-4.57,52.4,52.4,0,0,1-18.85-12.75,53.6,53.6,0,0,1-11.5-19.55,76.67,76.67,0,0,1-3.88-24.95,68,68,0,0,1,4.3-24.53,57.87,57.87,0,0,1,12-19.4,55.25,55.25,0,0,1,18.3-12.75,57.12,57.12,0,0,1,23-4.58,62.06,62.06,0,0,1,25.78,5.13,51.87,51.87,0,0,1,18.29,13.17l29.94-34.1q-12.48-11.91-32.43-19a128.73,128.73,0,0,0-43.25-7.07A119.35,119.35,0,0,0,653,244.41a100.06,100.06,0,0,0-33.82,20.65,95,95,0,0,0-22.6,32.57q-8.18,19.14-8.18,42.69,0,23.3,8.05,42.28a95.81,95.81,0,0,0,22.31,32.57,100,100,0,0,0,34.1,21.07,121.82,121.82,0,0,0,43.38,7.48,176.75,176.75,0,0,0,42-4.71A150.79,150.79,0,0,0,772,426.81m193,11.92-51.28-84q19.13-5.82,29.94-19.4t10.81-33.55q0-16.91-6.37-28.27a51.59,51.59,0,0,0-17-18.3,71.78,71.78,0,0,0-24.12-9.84,130.08,130.08,0,0,0-27.58-2.91H804.46V438.73h46.3V360.84h16.15l42.61,77.89ZM904.38,314.82a21.14,21.14,0,0,1-8.22,7.21A38.1,38.1,0,0,1,885,325.49a76.23,76.23,0,0,1-12,1H850.48V280.72h25.35a75.71,75.71,0,0,1,11,.84,33.07,33.07,0,0,1,10.31,3.18,20.07,20.07,0,0,1,7.51,6.66c2,2.86,2.93,6.61,2.93,11.22q0,7.49-3.2,12.2m270.24-17.6a93.25,93.25,0,0,0-22.32-32.29,99.15,99.15,0,0,0-34-20.52,129.57,129.57,0,0,0-85.24,0,99.38,99.38,0,0,0-33.82,20.52A93,93,0,0,0,977,297.22q-8,19-8,42.55,0,23.28,8,42.55a96.68,96.68,0,0,0,22.31,33,99.87,99.87,0,0,0,33.82,21.21,125.16,125.16,0,0,0,85.24,0,99.61,99.61,0,0,0,34-21.21,97,97,0,0,0,22.32-33q8-19.26,8-42.55,0-23.56-8-42.55m-46.85,67.08a57,57,0,0,1-11.65,19.27,54,54,0,0,1-17.74,12.61,58.69,58.69,0,0,1-45.46,0,52.41,52.41,0,0,1-17.6-12.61,58.18,58.18,0,0,1-11.51-19.27,70.13,70.13,0,0,1-4.15-24.53,69.41,69.41,0,0,1,4-23.84,54,54,0,0,1,11.51-19,54.6,54.6,0,0,1,40.47-17.05,56.14,56.14,0,0,1,22.87,4.58,53.08,53.08,0,0,1,17.74,12.47,57,57,0,0,1,11.51,19,67.39,67.39,0,0,1,4.16,23.84,70.13,70.13,0,0,1-4.16,24.53m244,.42V242.47h-47.4V360.84a58.49,58.49,0,0,1-1.94,15.24,35.82,35.82,0,0,1-6.38,12.89,31,31,0,0,1-11.5,9,39.79,39.79,0,0,1-17,3.33q-10,0-17-3.33a29.78,29.78,0,0,1-11.36-9,39,39,0,0,1-6.38-12.89,54.53,54.53,0,0,1-2.08-15.24V242.47h-47.13V364.72a86.21,86.21,0,0,0,5.83,32.29A70.38,70.38,0,0,0,1226,422a75.87,75.87,0,0,0,26.33,16.22q15.53,5.82,34.93,5.82a99.23,99.23,0,0,0,34.79-5.82A78.61,78.61,0,0,0,1348.8,422a70.34,70.34,0,0,0,17-24.95,84.48,84.48,0,0,0,6-32.29m168.82-90.23a49.63,49.63,0,0,0-16.35-18.57,70.93,70.93,0,0,0-24.4-10.26,135.55,135.55,0,0,0-30.07-3.19h-72.08V438.73h47.41v-74h23.56a127.71,127.71,0,0,0,29.38-3.33,75.78,75.78,0,0,0,25-10.53,52.36,52.36,0,0,0,17.19-19q6.38-11.78,6.37-29,0-16.9-6-28.41m-44.21,40.19a20.85,20.85,0,0,1-7.62,7.35,34.3,34.3,0,0,1-11,3.88,71.21,71.21,0,0,1-12.76,1.11h-19.95v-46.3h20.79a88.21,88.21,0,0,1,12.33.84,32.07,32.07,0,0,1,10.67,3.32,19.38,19.38,0,0,1,7.49,6.93q2.76,4.44,2.77,11.37a21.93,21.93,0,0,1-2.77,11.5"/><path d="M758.09,205.53l-51.29-84q19.13-5.82,29.94-19.4t10.81-33.54q0-16.9-6.37-28.28a51.64,51.64,0,0,0-17-18.29A71.78,71.78,0,0,0,700,12.18a129.94,129.94,0,0,0-27.58-2.91H597.58V205.53h46.3v-77.9H660l42.61,77.9ZM697.5,81.62a21.3,21.3,0,0,1-8.22,7.21,38.41,38.41,0,0,1-11.14,3.46,76.23,76.23,0,0,1-12,1H643.6V47.52H669a77.08,77.08,0,0,1,11,.83,33,33,0,0,1,10.31,3.19,20.06,20.06,0,0,1,7.52,6.65q2.93,4.31,2.92,11.23,0,7.49-3.2,12.2m214,123.91V165.06h-91.2V124.31h81.5v-38h-81.5V49.18h86.21V9.27h-132V205.53Zm198-11.92v-104H1028.5v38.25h37.42v35.76a58.74,58.74,0,0,1-13.86,4,96.27,96.27,0,0,1-15.8,1.25,67.46,67.46,0,0,1-25.64-4.58,52.19,52.19,0,0,1-18.85-12.75,53.58,53.58,0,0,1-11.51-19.54,76.71,76.71,0,0,1-3.88-24.95,67.94,67.94,0,0,1,4.3-24.53,57.78,57.78,0,0,1,12.06-19.41A55.25,55.25,0,0,1,1011,50.43a57.1,57.1,0,0,1,23-4.57A62,62,0,0,1,1059.82,51a51.8,51.8,0,0,1,18.3,13.16l29.94-34.09q-12.48-11.92-32.44-19A128.43,128.43,0,0,0,1032.38,4a119.18,119.18,0,0,0-41.86,7.21A100.15,100.15,0,0,0,956.7,31.86a94.91,94.91,0,0,0-22.59,32.57q-8.18,19.13-8.18,42.69,0,23.28,8,42.27A96.11,96.11,0,0,0,956.29,182,100.12,100.12,0,0,0,990.38,203a121.88,121.88,0,0,0,43.39,7.49,176.6,176.6,0,0,0,42-4.71,150.79,150.79,0,0,0,33.68-12.2m219,11.92L1246.91,9.27h-46l-82.33,196.26h51.56L1184.54,167h76l15.25,38.53Zm-81-76.51h-49.34l25-67.36Zm212-79.28V9.27H1301.13V49.74h55.44V205.53H1404V49.74Zm164,0V9.27H1465.15V49.74h55.44V205.53H1568V49.74Zm181.31,155.79L1723.24,9.27h-46L1594.9,205.53h51.56L1660.87,167h76l15.24,38.53ZM1723.8,129h-49.34l25-67.36Z"/><path class="cls-1" d="M316.24,330.77A154.51,154.51,0,0,1,300.8,330c45.23-32.81,74.63-85.62,74.63-145.08S346,72.63,300.8,39.83A151.57,151.57,0,0,1,316.24,39c81.9,0,148.54,65.44,148.54,145.87S398.14,330.77,316.24,330.77M44.16,184.91C44.16,104.48,110.8,39,192.7,39a151.57,151.57,0,0,1,15.44.79c-45.23,32.8-74.63,85.62-74.63,145.08S162.91,297.18,208.14,330a154.51,154.51,0,0,1-15.44.78c-81.9,0-148.54-65.43-148.54-145.86m227.4-67.23V61.35a148.78,148.78,0,0,1,43.35,40.74c-15.63,7.33-30.32,12.59-43.35,15.59m0,60.49V152.6c21.11-3.83,42.32-12.14,59.65-20.38a142.87,142.87,0,0,1,5.88,18.44c-23.81,13.58-46.48,23.05-65.53,27.51m67.66,30.7c-24.45,13.81-48,23.36-67.66,27.6V213c16.92-3.12,40.19-10.25,69.64-25.64a143.53,143.53,0,0,1-2,21.48m-67.66,99.59V271.27c17.69-3,35.56-9.22,51.22-16a148.1,148.1,0,0,1-51.22,53.2m-34.19-37.25v37.24a148.09,148.09,0,0,1-51-52.83c15.68,6.71,33.45,12.78,51,15.59m0-58.14v23.39c-19.51-4-43.07-13.4-67.57-27.1a143.54,143.54,0,0,1-2.06-21.49c24.8,12.73,48.76,21.39,69.63,25.2m-59.75-80.55c17.46,8.22,38.7,16.43,59.75,20.06v25.63c-19.28-4.43-42.22-13.82-65.65-27a142.51,142.51,0,0,1,5.9-18.66m59.75-71.16v56.36c-13-2.87-27.8-8.07-43.52-15.36a148.48,148.48,0,0,1,43.52-41M499,184.91C499,85.62,417,4.84,316.24,4.84a184.37,184.37,0,0,0-61.77,10.6A184.37,184.37,0,0,0,192.7,4.84C91.94,4.84,10,85.62,10,184.91c0,96.45,77.37,175.43,174.16,179.86-38.17,24-79.82,39.74-104.72,39.74V438.7c46.38,0,111.89-33,158-70.37v70.92h34.19V368.32c46.09,37.4,111.59,70.37,158,70.37V404.5c-28.77,0-69-17.24-104.34-39.75C421.81,360.14,499,281.24,499,184.91"/></svg>